{"title":"The Guilt Trip 2012 Bluray 720p Esub x264 Dual Audio Hindi Engli","uid":10455170,"size":795295672,"categoryP":"video","categoryS":"movies","magnet":"?xt=urn:btih:7e493bac8c3dae75fade9a11c5504c6dba09fe52&amp;dn=The+Guilt+Trip+2012+Bluray+720p+Esub+x264+Dual+Audio+Hindi+Engli&amp;tr=udp%3A%2F%2Ftracker.openbittorrent.com%3A80&amp;tr=udp%3A%2F%2Fopen.demonii.com%3A1337&amp;tr=udp%3A%2F%2Ftracker.coppersurfer.tk%3A6969&amp;tr=udp%3A%2F%2Fexodus.desync.com%3A6969","seeders":1,"leechers":2,"uploader":"jatt13","files":2,"time":1404069235,"description":"Video\nID                             : 1\nFormat                         : AVC\nFormat/Info                    : Advanced Video Codec\nFormat profile                 : &lt;a class=&quot;__cf_email__&quot; href=&quot;/cdn-cgi/l/email-protection&quot; data-cfemail=&quot;d199b8b6b9919de5ffe1&quot;&gt;[email&amp;#160;protected]&lt;/a&gt;&lt;script cf-hash='f9e31' type=&quot;text/javascript&quot;&gt;\n/* &lt;![CDATA[ */!function(){try{var t=&quot;currentScript&quot;in document?document.currentScript:function(){for(var t=document.getElementsByTagName(&quot;script&quot;),e=t.length;e--;)if(t[e].getAttribute(&quot;cf-hash&quot;))return t[e]}();if(t&amp;&amp;t.previousSibling){var e,r,n,i,c=t.previousSibling,a=c.getAttribute(&quot;data-cfemail&quot;);if(a){for(e=&quot;&quot;,r=parseInt(a.substr(0,2),16),n=2;a.length-n;n+=2)i=parseInt(a.substr(n,2),16)^r,e+=String.fromCharCode(i);e=document.createTextNode(e),c.parentNode.replaceChild(e,c)}}}catch(u){}}();/* ]]&gt; */&lt;/script&gt;\nFormat settings, CABAC         : Yes\nFormat settings, ReFrames      : 8 frames\nCodec ID                       : V_MPEG4/ISO/AVC\nDuration                       : 1h 35mn\nBit rate                       : 850 Kbps\nWidth                          : 1 280 pixels\nHeight                         : 544 pixels\nDisplay aspect ratio           : 2.35:1\nFrame rate mode                : Constant\nFrame rate                     : 23.976 fps\nColor space                    : YUV\nChroma subsampling             : 4:2:0\nBit depth                      : 8 bits\nScan type                      : Progressive\nBits/(Pixel*Frame)             : 0.051\nStream size                    : 568 MiB (75%)\nTitle                          : GOPI SAHI\nWriting library                : x264 core 138 r2358 9e941d1\nLanguage                       : English\nDefault                        : Yes\nForced                         : No\n\nAudio #1\nID                             : 2\nFormat                         : AC-3\nFormat/Info                    : Audio Coding 3\nMode extension                 : CM (complete main)\nFormat settings, Endianness    : Big\nCodec ID                       : A_AC3\nDuration                       : 1h 35mn\nBit rate mode                  : Constant\nBit rate                       : 128 Kbps\nChannel(s)                     : 2 channels\nChannel positions              : Front: L R\nSampling rate                  : 48.0 KHz\nBit depth                      : 16 bits\nCompression mode               : Lossy\nStream size                    : 87.6 MiB (12%)\nTitle                          : GOPI SAHI\nLanguage                       : Hindi\nDefault                        : Yes\nForced                         : No\n\nAudio #2\nID                             : 3\nFormat                         : AC-3\nFormat/Info                    : Audio Coding 3\nMode extension                 : CM (complete main)\nFormat settings, Endianness    : Big\nCodec ID                       : A_AC3\nDuration                       : 1h 35mn\nBit rate mode                  : Constant\nBit rate                       : 128 Kbps\nChannel(s)                     : 2 channels\nChannel positions              : Front: L R\nSampling rate                  : 48.0 KHz\nBit depth                      : 16 bits\nCompression mode               : Lossy\nStream size                    : 87.6 MiB (12%)\nTitle                          : GOPI SAHI\nLanguage                       : English\nDefault                        : No\nForced                         : No\n[IMG]http://i.imgur.com/f9yku39.jpg[/IMG]\n[IMG]http://i.imgur.com/ppEHhiw.jpg[/IMG]\n[IMG]http://i.imgur.com/ik4QjOs.jpg[/IMG]\n[IMG]http://i.imgur.com/TKFVoi6.jpg[/IMG]\n[IMG]http://i.imgur.com/4CGzl3Y.jpg[/IMG]\n[IMG]http://i.imgur.com/j5dZn2G.jpg[/IMG]","torrent":{"xt":"urn:btih:7e493bac8c3dae75fade9a11c5504c6dba09fe52","amp;dn":"The+Guilt+Trip+2012+Bluray+720p+Esub+x264+Dual+Audio+Hindi+Engli","amp;tr":["udp%3A%2F%2Ftracker.openbittorrent.com%3A80","udp%3A%2F%2Fopen.demonii.com%3A1337","udp%3A%2F%2Ftracker.coppersurfer.tk%3A6969","udp%3A%2F%2Fexodus.desync.com%3A6969"],"infoHash":"7e493bac8c3dae75fade9a11c5504c6dba09fe52","infoHashBuffer":{"type":"Buffer","data":[126,73,59,172,140,61,174,117,250,222,154,17,197,80,76,109,186,9,254,82]},"announce":[],"urlList":[]}}